<svg width="351" height="175" viewBox="0 0 351 175" fill="none" xmlns="http://www.w3.org/2000/svg">
<path d="M27.2866 123.741L2.35278 45.8736H18.082L38.7361 113.287L34.2408 111.154H45.7982L41.1968 113.287L60.2458 45.8736H75.4412L52.3264 123.741H27.2866ZM87.6275 123.741V65.8218H102.503V123.741H87.6275ZM79.496 76.9143V65.8218H102.503V76.9143H79.496ZM93.0863 58.8874C90.1613 58.8874 87.984 58.1419 86.558 56.6471C85.2016 55.083 84.5252 53.1635 84.5252 50.8885C84.5252 48.4695 85.2016 46.5135 86.558 45.0205C87.984 43.5275 90.1613 42.7802 93.0863 42.7802C96.0113 42.7802 98.1502 43.5275 99.5067 45.0205C100.861 46.5135 101.54 48.4695 101.54 50.8885C101.54 53.1635 100.861 55.083 99.5067 56.6471C98.1502 58.1419 96.0113 58.8874 93.0863 58.8874Z" fill="#EBEBEB"/>
<path d="M229.819 123.741V45.8736H244.693V123.741H229.819ZM222.541 56.9679V45.8736H244.693V56.9679H222.541ZM264.457 123.741V65.8218H279.332V123.741H264.457ZM256.323 76.9143V65.8218H279.332V76.9143H256.323ZM269.913 58.8874C266.99 58.8874 264.813 58.1419 263.387 56.6471C262.031 55.083 261.354 53.1635 261.354 50.8885C261.354 48.4695 262.031 46.5135 263.387 45.0205C264.813 43.5275 266.99 42.7802 269.913 42.7802C272.838 42.7802 274.979 43.5275 276.336 45.0205C277.69 46.5135 278.369 48.4695 278.369 50.8885C278.369 53.1635 277.69 55.083 276.336 56.6471C274.979 58.1419 272.838 58.8874 269.913 58.8874ZM289.838 123.741L308.779 92.8083L308.458 95.2601L290.588 65.8218H306.747L318.41 86.1947H320.015L331.037 65.8218H346.234L329.326 95.1544L329.647 93.0216L349.658 123.741H333.499L319.695 101.874H318.09L305.034 123.741H289.838Z" fill="#EBEBEB"/>
<path d="M211.934 73.3578C214.505 74.7195 216.655 76.7539 218.154 79.2403C219.653 81.7268 220.444 84.5723 220.444 87.4744C220.444 90.3747 219.653 93.2221 218.154 95.7085C216.655 98.195 214.505 100.229 211.934 101.591L143.382 138.748C132.343 144.736 118.784 136.95 118.784 124.636V50.3179C118.784 37.9986 132.343 30.2166 143.382 36.1958L211.934 73.3578Z" fill="#B20000"/>
</svg>
