<svg width="197" height="98" viewBox="0 0 197 98" fill="none" xmlns="http://www.w3.org/2000/svg">
<path d="M15.3147 69.2952L1.32053 25.6893H10.1486L21.7408 63.4407L19.2178 62.2463H25.7044L23.1219 63.4407L33.8132 25.6893H42.3417L29.3684 69.2952H15.3147ZM49.1813 69.2952V36.8602H57.5302V69.2952H49.1813ZM44.6174 43.072V36.8602H57.5302V43.072H44.6174ZM52.245 32.977C50.6034 32.977 49.3813 32.5595 48.581 31.7224C47.8197 30.8465 47.4401 29.7716 47.4401 28.4976C47.4401 27.1429 47.8197 26.0476 48.581 25.2115C49.3813 24.3755 50.6034 23.9569 52.245 23.9569C53.8867 23.9569 55.0872 24.3755 55.8485 25.2115C56.6088 26.0476 56.9894 27.1429 56.9894 28.4976C56.9894 29.7716 56.6088 30.8465 55.8485 31.7224C55.0872 32.5595 53.8867 32.977 52.245 32.977Z" fill="#222222"/>
<path d="M128.987 69.2952V25.6893H137.335V69.2952H128.987ZM124.902 31.9021V25.6893H137.335V31.9021H124.902ZM148.427 69.2952V36.8602H156.776V69.2952H148.427ZM143.862 43.072V36.8602H156.776V43.072H143.862ZM151.49 32.977C149.849 32.977 148.627 32.5595 147.827 31.7224C147.066 30.8465 146.686 29.7716 146.686 28.4976C146.686 27.1429 147.066 26.0476 147.827 25.2115C148.627 24.3755 149.849 23.9569 151.49 23.9569C153.132 23.9569 154.333 24.3755 155.094 25.2115C155.855 26.0476 156.235 27.1429 156.235 28.4976C156.235 29.7716 155.855 30.8465 155.094 31.7224C154.333 32.5595 153.132 32.977 151.49 32.977ZM162.673 69.2952L173.304 51.9727L173.123 53.3457L163.093 36.8602H172.163L178.709 48.2691H179.61L185.796 36.8602H194.325L184.835 53.2865L185.016 52.0921L196.247 69.2952H187.178L179.43 57.0493H178.529L171.201 69.2952H162.673Z" fill="#222222"/>
<path d="M118.949 41.0804C120.392 41.8429 121.598 42.9822 122.44 44.3746C123.281 45.767 123.725 47.3605 123.725 48.9857C123.725 50.6098 123.281 52.2044 122.44 53.5968C121.598 54.9892 120.392 56.1285 118.949 56.891L80.4735 77.6987C74.2782 81.0521 66.6681 76.6921 66.6681 69.7964V28.1781C66.6681 21.2793 74.2782 16.9213 80.4735 20.2697L118.949 41.0804Z" fill="#B20000"/>
</svg>
