<svg width="42" height="42" viewBox="0 0 42 42" fill="none" xmlns="http://www.w3.org/2000/svg">
<path fill-rule="evenodd" clip-rule="evenodd" d="M18.3752 3.5C16.0032 3.5002 13.6657 4.06764 11.5576 5.15496C9.44959 6.24229 7.63211 7.81798 6.25686 9.75057C4.88161 11.6832 3.98847 13.9166 3.65194 16.2646C3.31541 18.6125 3.54526 21.007 4.32231 23.248C5.09936 25.4891 6.40108 27.5118 8.11886 29.1475C9.83665 30.7832 11.9207 31.9844 14.1971 32.6508C16.4735 33.3172 18.8763 33.4296 21.205 32.9786C23.5337 32.5276 25.7207 31.5262 27.5837 30.058L33.9747 36.449C34.3048 36.7678 34.7468 36.9442 35.2057 36.9402C35.6645 36.9362 36.1034 36.7521 36.4279 36.4277C36.7523 36.1032 36.9364 35.6643 36.9404 35.2055C36.9444 34.7466 36.768 34.3046 36.4492 33.9745L30.0582 27.5835C31.7872 25.3901 32.8637 22.7542 33.1646 19.9775C33.4655 17.2008 32.9786 14.3955 31.7596 11.8827C30.5406 9.36979 28.6387 7.25087 26.2717 5.7684C23.9047 4.28594 21.1681 3.49981 18.3752 3.5ZM7.0002 18.375C7.0002 15.3582 8.19863 12.4649 10.3319 10.3317C12.4651 8.19843 15.3584 7 18.3752 7C21.392 7 24.2853 8.19843 26.4185 10.3317C28.5518 12.4649 29.7502 15.3582 29.7502 18.375C29.7502 21.3918 28.5518 24.2851 26.4185 26.4183C24.2853 28.5516 21.392 29.75 18.3752 29.75C15.3584 29.75 12.4651 28.5516 10.3319 26.4183C8.19863 24.2851 7.0002 21.3918 7.0002 18.375Z" fill="black"/>
</svg>
