<svg width="328" height="126" viewBox="0 0 328 126" fill="none" xmlns="http://www.w3.org/2000/svg">
<g clip-path="url(#clip0_91_608)">
<path d="M25.4957 97L2.1957 24H16.8957L36.1957 87.2L31.9957 85.2H42.7957L38.4957 87.2L56.2957 24H70.4957L48.8957 97H25.4957ZM81.8848 97V42.7H95.7848V97H81.8848ZM74.2848 53.1V42.7H95.7848V53.1H74.2848ZM86.9848 36.2C84.2514 36.2 82.2181 35.5 80.8848 34.1C79.6181 32.6333 78.9848 30.8333 78.9848 28.7C78.9848 26.4333 79.6181 24.6 80.8848 23.2C82.2181 21.8 84.2514 21.1 86.9848 21.1C89.7181 21.1 91.7181 21.8 92.9848 23.2C94.2514 24.6 94.8848 26.4333 94.8848 28.7C94.8848 30.8333 94.2514 32.6333 92.9848 34.1C91.7181 35.5 89.7181 36.2 86.9848 36.2Z" fill="#222222"/>
<path d="M214.76 97V24H228.66V97H214.76ZM207.96 34.4V24H228.66V34.4H207.96ZM247.129 97V42.7H261.029V97H247.129ZM239.529 53.1V42.7H261.029V53.1H239.529ZM252.229 36.2C249.496 36.2 247.462 35.5 246.129 34.1C244.862 32.6333 244.229 30.8333 244.229 28.7C244.229 26.4333 244.862 24.6 246.129 23.2C247.462 21.8 249.496 21.1 252.229 21.1C254.962 21.1 256.962 21.8 258.229 23.2C259.496 24.6 260.129 26.4333 260.129 28.7C260.129 30.8333 259.496 32.6333 258.229 34.1C256.962 35.5 254.962 36.2 252.229 36.2ZM270.848 97L288.548 68L288.248 70.3L271.548 42.7H286.648L297.548 61.8H299.048L309.348 42.7H323.548L307.748 70.2L308.048 68.2L326.748 97H311.648L298.748 76.5H297.248L285.048 97H270.848Z" fill="#222222"/>
<path d="M198.048 49.7654C200.449 51.0425 202.458 52.9488 203.859 55.2802C205.26 57.6116 206 60.2802 206 63C206 65.7199 205.26 68.3885 203.859 70.7199C202.458 73.0513 200.449 74.9576 198.048 76.2347L133.986 111.069C123.67 116.683 111 109.384 111 97.839V28.1661C111 16.6164 123.67 9.32165 133.986 14.9265L198.048 49.7654Z" fill="#B20000"/>
</g>
<defs>
<clipPath id="clip0_91_608">
<rect width="328" height="126" fill="white"/>
</clipPath>
</defs>
</svg>
